/* XPM */
static const char *const sim_32x32_xpm[] = {
/* width height ncolors chars_per_pixel */
"32 32 8 1",
/* colors */
"  c none",
". c #ffffff",
"O c #000000",
"/ c #58585a",
"r c #ee6055",
"g c #51b77c",
"b c #4bc4e9",
"y c #ffc80e",
/* pixels */
"                                ",
"                                ",
"          bbbbbbbbbbbbbbbbbb    ",
"         bbbbbbbbbbbbbbbbbbb    ",
"        bbbbbbbbbbbbbbbbbbbb    ",
"       bbbbbbbbbbbbbbbbbbbbb    ",
"      bbbbbbbbbbbbbbbbbbbbbb    ",
"      bbbbbbbbbbbbbbbbbbbbbb    ",
"      bbbbbbbbbbbbbbbbbbbbbb    ",
"      bbbbbbbbbbbbbbbbbbbbbb    ",
"      bbbbbbbbbbbbbbbbbbbbbb    ",
"      bbbbbbbbbbbbbbbbbbbbbb    ",
"      bbbbbbbbbbbbbbbbbbbbbb    ",
"      bbbbbbbbbbbbbbbbbbbbbb    ",
"      bbbbbbyy.yy.yy.yyybbbb    ",
"      bbbbbbyy.yy.yy.yyybbbb    ",
"      bbbbbbyy.yy.yy.yyybbbb    ",
"      bbbbbb............bbbb    ",
"      bbbbbbyyyyyyyyyyyybbbb    ",
"      bbbbbbyyyyyyyyyyyybbbb    ",
"      bbbbbbyyyyyyyyyyyybbbb    ",
"      bbbbbb.........yyybbbb    ",
"      bbbbbbyy.yy.yy.yyybbbb    ",
"      bbbbbbyy.yy.yy.yyybbbb    ",
"      bbbbbbyy.yy.yy.yyybbbb    ",
"      bbbbbbyy.yy.yy.yyybbbb    ",
"      bbbbbbbbbbbbbbbbbbbbbb    ",
"      bbbbbbbbbbbbbbbbbbbbbb    ",
"                                ",
"                                ",
"                                ",
"                                "};
